<mxfile host="app.diagrams.net" modified="2023-10-09T09:16:06.280Z" agent="Mozilla/5.0 (Windows NT 10.0; Win64; x64) AppleWebKit/537.36 (KHTML, like Gecko) Chrome/117.0.0.0 Safari/537.36" etag="0JHd46by2W70M1ljsor_" version="22.0.4" type="device">
  <diagram name="Halaman-1" id="GGZOMb8V_9pWOoryWfFL">
    <mxGraphModel dx="1588" dy="2017" grid="1" gridSize="10" guides="1" tooltips="1" connect="1" arrows="1" fold="1" page="1" pageScale="1" pageWidth="827" pageHeight="1169" math="0" shadow="0">
      <root>
        <mxCell id="0" />
        <mxCell id="1" parent="0" />
        <mxCell id="_FAD8S8fa4v7GIAxKk1I-93" value="" style="rounded=0;whiteSpace=wrap;html=1;" vertex="1" parent="1">
          <mxGeometry x="120" y="-360" width="1120" height="960" as="geometry" />
        </mxCell>
        <mxCell id="_FAD8S8fa4v7GIAxKk1I-1" value="&lt;font style=&quot;font-size: 16px;&quot;&gt;&lt;b style=&quot;font-size: 16px;&quot;&gt;ERD SISTEM INFORMASI SWALAYAN&lt;/b&gt;&lt;/font&gt;" style="text;html=1;align=center;verticalAlign=middle;resizable=0;points=[];autosize=1;strokeColor=none;fillColor=none;fontSize=16;" vertex="1" parent="1">
          <mxGeometry x="534.5" y="-320" width="310" height="30" as="geometry" />
        </mxCell>
        <mxCell id="_FAD8S8fa4v7GIAxKk1I-2" value="Barang" style="rounded=0;whiteSpace=wrap;html=1;" vertex="1" parent="1">
          <mxGeometry x="390" y="128" width="100" height="50" as="geometry" />
        </mxCell>
        <mxCell id="_FAD8S8fa4v7GIAxKk1I-3" value="&lt;b&gt;&lt;u&gt;id_barang&lt;/u&gt;&lt;/b&gt;" style="ellipse;whiteSpace=wrap;html=1;" vertex="1" parent="1">
          <mxGeometry x="235" y="-10" width="100" height="60" as="geometry" />
        </mxCell>
        <mxCell id="_FAD8S8fa4v7GIAxKk1I-5" value="nama_barang" style="ellipse;whiteSpace=wrap;html=1;" vertex="1" parent="1">
          <mxGeometry x="200" y="60" width="100" height="60" as="geometry" />
        </mxCell>
        <mxCell id="_FAD8S8fa4v7GIAxKk1I-7" value="qty" style="ellipse;whiteSpace=wrap;html=1;" vertex="1" parent="1">
          <mxGeometry x="160" y="123" width="100" height="60" as="geometry" />
        </mxCell>
        <mxCell id="_FAD8S8fa4v7GIAxKk1I-12" value="harga_beli_&lt;br&gt;barang" style="ellipse;whiteSpace=wrap;html=1;" vertex="1" parent="1">
          <mxGeometry x="200" y="190" width="100" height="60" as="geometry" />
        </mxCell>
        <mxCell id="_FAD8S8fa4v7GIAxKk1I-13" value="harga_jual_&lt;br&gt;barang" style="ellipse;whiteSpace=wrap;html=1;" vertex="1" parent="1">
          <mxGeometry x="235" y="260" width="100" height="60" as="geometry" />
        </mxCell>
        <mxCell id="_FAD8S8fa4v7GIAxKk1I-16" value="Supplier" style="rounded=0;whiteSpace=wrap;html=1;" vertex="1" parent="1">
          <mxGeometry x="869" y="127" width="100" height="50" as="geometry" />
        </mxCell>
        <mxCell id="_FAD8S8fa4v7GIAxKk1I-17" value="&lt;b&gt;&lt;u&gt;id_supplier&lt;/u&gt;&lt;/b&gt;" style="ellipse;whiteSpace=wrap;html=1;" vertex="1" parent="1">
          <mxGeometry x="989" y="32.5" width="100" height="60" as="geometry" />
        </mxCell>
        <mxCell id="_FAD8S8fa4v7GIAxKk1I-18" value="nama_supplier" style="ellipse;whiteSpace=wrap;html=1;" vertex="1" parent="1">
          <mxGeometry x="1040" y="92.5" width="100" height="60" as="geometry" />
        </mxCell>
        <mxCell id="_FAD8S8fa4v7GIAxKk1I-19" value="alamat_supplier" style="ellipse;whiteSpace=wrap;html=1;" vertex="1" parent="1">
          <mxGeometry x="989" y="227.5" width="100" height="60" as="geometry" />
        </mxCell>
        <mxCell id="_FAD8S8fa4v7GIAxKk1I-20" value="" style="endArrow=none;html=1;rounded=0;entryX=1;entryY=0.5;entryDx=0;entryDy=0;exitX=0.5;exitY=1;exitDx=0;exitDy=0;" edge="1" parent="1" source="_FAD8S8fa4v7GIAxKk1I-17" target="_FAD8S8fa4v7GIAxKk1I-16">
          <mxGeometry width="50" height="50" relative="1" as="geometry">
            <mxPoint x="908" y="277.5" as="sourcePoint" />
            <mxPoint x="958" y="227.5" as="targetPoint" />
          </mxGeometry>
        </mxCell>
        <mxCell id="_FAD8S8fa4v7GIAxKk1I-21" value="" style="endArrow=none;html=1;rounded=0;exitX=0;exitY=0.5;exitDx=0;exitDy=0;entryX=1;entryY=0.5;entryDx=0;entryDy=0;" edge="1" parent="1" source="_FAD8S8fa4v7GIAxKk1I-18" target="_FAD8S8fa4v7GIAxKk1I-16">
          <mxGeometry width="50" height="50" relative="1" as="geometry">
            <mxPoint x="858" y="287.5" as="sourcePoint" />
            <mxPoint x="1019" y="217.5" as="targetPoint" />
          </mxGeometry>
        </mxCell>
        <mxCell id="_FAD8S8fa4v7GIAxKk1I-22" value="" style="endArrow=none;html=1;rounded=0;entryX=1;entryY=0.5;entryDx=0;entryDy=0;exitX=0.5;exitY=0;exitDx=0;exitDy=0;" edge="1" parent="1" source="_FAD8S8fa4v7GIAxKk1I-19" target="_FAD8S8fa4v7GIAxKk1I-16">
          <mxGeometry width="50" height="50" relative="1" as="geometry">
            <mxPoint x="858" y="287.5" as="sourcePoint" />
            <mxPoint x="968" y="247.5" as="targetPoint" />
          </mxGeometry>
        </mxCell>
        <mxCell id="_FAD8S8fa4v7GIAxKk1I-23" value="email_supplier" style="ellipse;whiteSpace=wrap;html=1;" vertex="1" parent="1">
          <mxGeometry x="1050" y="163" width="100" height="60" as="geometry" />
        </mxCell>
        <mxCell id="_FAD8S8fa4v7GIAxKk1I-24" value="" style="endArrow=none;html=1;rounded=0;entryX=1;entryY=0.5;entryDx=0;entryDy=0;exitX=0;exitY=0.5;exitDx=0;exitDy=0;" edge="1" parent="1" source="_FAD8S8fa4v7GIAxKk1I-23" target="_FAD8S8fa4v7GIAxKk1I-16">
          <mxGeometry width="50" height="50" relative="1" as="geometry">
            <mxPoint x="939" y="285.5" as="sourcePoint" />
            <mxPoint x="968" y="247.5" as="targetPoint" />
          </mxGeometry>
        </mxCell>
        <mxCell id="_FAD8S8fa4v7GIAxKk1I-25" value="memasok" style="rhombus;whiteSpace=wrap;html=1;" vertex="1" parent="1">
          <mxGeometry x="630" y="113" width="119" height="80" as="geometry" />
        </mxCell>
        <mxCell id="_FAD8S8fa4v7GIAxKk1I-27" value="" style="endArrow=none;html=1;rounded=0;exitX=0;exitY=0.5;exitDx=0;exitDy=0;entryX=1;entryY=0.5;entryDx=0;entryDy=0;endFill=0;" edge="1" parent="1" source="_FAD8S8fa4v7GIAxKk1I-25" target="_FAD8S8fa4v7GIAxKk1I-2">
          <mxGeometry width="50" height="50" relative="1" as="geometry">
            <mxPoint x="660" y="214.47" as="sourcePoint" />
            <mxPoint x="500" y="214" as="targetPoint" />
          </mxGeometry>
        </mxCell>
        <mxCell id="_FAD8S8fa4v7GIAxKk1I-28" value="N" style="text;html=1;align=center;verticalAlign=middle;resizable=0;points=[];autosize=1;strokeColor=none;fillColor=none;strokeWidth=0;fontSize=14;fontStyle=1" vertex="1" parent="1">
          <mxGeometry x="500" y="118" width="30" height="30" as="geometry" />
        </mxCell>
        <mxCell id="_FAD8S8fa4v7GIAxKk1I-29" value="N" style="text;html=1;align=center;verticalAlign=middle;resizable=0;points=[];autosize=1;strokeColor=none;fillColor=none;strokeWidth=0;fontSize=14;fontStyle=1" vertex="1" parent="1">
          <mxGeometry x="830" y="118" width="30" height="30" as="geometry" />
        </mxCell>
        <mxCell id="_FAD8S8fa4v7GIAxKk1I-30" value="Member" style="rounded=0;whiteSpace=wrap;html=1;" vertex="1" parent="1">
          <mxGeometry x="390" y="-142" width="100" height="50" as="geometry" />
        </mxCell>
        <mxCell id="_FAD8S8fa4v7GIAxKk1I-31" value="&lt;b&gt;&lt;u&gt;id_member&lt;/u&gt;&lt;/b&gt;" style="ellipse;whiteSpace=wrap;html=1;" vertex="1" parent="1">
          <mxGeometry x="221" y="-242" width="100" height="60" as="geometry" />
        </mxCell>
        <mxCell id="_FAD8S8fa4v7GIAxKk1I-32" value="nama_member" style="ellipse;whiteSpace=wrap;html=1;" vertex="1" parent="1">
          <mxGeometry x="335" y="-242" width="100" height="60" as="geometry" />
        </mxCell>
        <mxCell id="_FAD8S8fa4v7GIAxKk1I-33" value="no_telepon" style="ellipse;whiteSpace=wrap;html=1;" vertex="1" parent="1">
          <mxGeometry x="448" y="-242" width="100" height="60" as="geometry" />
        </mxCell>
        <mxCell id="_FAD8S8fa4v7GIAxKk1I-34" value="tanggal_&lt;br&gt;bergabung" style="ellipse;whiteSpace=wrap;html=1;" vertex="1" parent="1">
          <mxGeometry x="561" y="-242" width="100" height="60" as="geometry" />
        </mxCell>
        <mxCell id="_FAD8S8fa4v7GIAxKk1I-35" value="" style="endArrow=none;html=1;rounded=0;entryX=0.5;entryY=0;entryDx=0;entryDy=0;exitX=0.5;exitY=1;exitDx=0;exitDy=0;" edge="1" parent="1" source="_FAD8S8fa4v7GIAxKk1I-31" target="_FAD8S8fa4v7GIAxKk1I-30">
          <mxGeometry width="50" height="50" relative="1" as="geometry">
            <mxPoint x="391" y="-182" as="sourcePoint" />
            <mxPoint x="441" y="-232" as="targetPoint" />
          </mxGeometry>
        </mxCell>
        <mxCell id="_FAD8S8fa4v7GIAxKk1I-36" value="" style="endArrow=none;html=1;rounded=0;entryX=0.5;entryY=0;entryDx=0;entryDy=0;exitX=0.5;exitY=1;exitDx=0;exitDy=0;" edge="1" parent="1" source="_FAD8S8fa4v7GIAxKk1I-32" target="_FAD8S8fa4v7GIAxKk1I-30">
          <mxGeometry width="50" height="50" relative="1" as="geometry">
            <mxPoint x="301" y="-172" as="sourcePoint" />
            <mxPoint x="451" y="-102" as="targetPoint" />
          </mxGeometry>
        </mxCell>
        <mxCell id="_FAD8S8fa4v7GIAxKk1I-37" value="" style="endArrow=none;html=1;rounded=0;entryX=0.5;entryY=0;entryDx=0;entryDy=0;exitX=0.5;exitY=1;exitDx=0;exitDy=0;" edge="1" parent="1" source="_FAD8S8fa4v7GIAxKk1I-33" target="_FAD8S8fa4v7GIAxKk1I-30">
          <mxGeometry width="50" height="50" relative="1" as="geometry">
            <mxPoint x="411" y="-172" as="sourcePoint" />
            <mxPoint x="451" y="-102" as="targetPoint" />
          </mxGeometry>
        </mxCell>
        <mxCell id="_FAD8S8fa4v7GIAxKk1I-38" value="" style="endArrow=none;html=1;rounded=0;entryX=0.5;entryY=0;entryDx=0;entryDy=0;exitX=0.5;exitY=1;exitDx=0;exitDy=0;" edge="1" parent="1" source="_FAD8S8fa4v7GIAxKk1I-34" target="_FAD8S8fa4v7GIAxKk1I-30">
          <mxGeometry width="50" height="50" relative="1" as="geometry">
            <mxPoint x="521" y="-172" as="sourcePoint" />
            <mxPoint x="451" y="-102" as="targetPoint" />
          </mxGeometry>
        </mxCell>
        <mxCell id="_FAD8S8fa4v7GIAxKk1I-39" value="membeli" style="rhombus;whiteSpace=wrap;html=1;" vertex="1" parent="1">
          <mxGeometry x="381" y="-20" width="119" height="80" as="geometry" />
        </mxCell>
        <mxCell id="_FAD8S8fa4v7GIAxKk1I-40" value="" style="endArrow=none;html=1;rounded=0;entryX=0.5;entryY=1;entryDx=0;entryDy=0;exitX=0.5;exitY=0;exitDx=0;exitDy=0;" edge="1" parent="1" source="_FAD8S8fa4v7GIAxKk1I-2" target="_FAD8S8fa4v7GIAxKk1I-39">
          <mxGeometry width="50" height="50" relative="1" as="geometry">
            <mxPoint x="450" y="190" as="sourcePoint" />
            <mxPoint x="446.5" y="80" as="targetPoint" />
          </mxGeometry>
        </mxCell>
        <mxCell id="_FAD8S8fa4v7GIAxKk1I-41" value="" style="endArrow=none;html=1;rounded=0;entryX=0.5;entryY=1;entryDx=0;entryDy=0;" edge="1" parent="1" source="_FAD8S8fa4v7GIAxKk1I-39">
          <mxGeometry width="50" height="50" relative="1" as="geometry">
            <mxPoint x="439.38" y="8" as="sourcePoint" />
            <mxPoint x="439.38" y="-92" as="targetPoint" />
          </mxGeometry>
        </mxCell>
        <mxCell id="_FAD8S8fa4v7GIAxKk1I-42" value="N" style="text;html=1;align=center;verticalAlign=middle;resizable=0;points=[];autosize=1;strokeColor=none;fillColor=none;strokeWidth=0;fontSize=14;fontStyle=1" vertex="1" parent="1">
          <mxGeometry x="399" y="88" width="30" height="30" as="geometry" />
        </mxCell>
        <mxCell id="_FAD8S8fa4v7GIAxKk1I-43" value="1" style="text;html=1;align=center;verticalAlign=middle;resizable=0;points=[];autosize=1;strokeColor=none;fillColor=none;strokeWidth=0;fontSize=14;fontStyle=1" vertex="1" parent="1">
          <mxGeometry x="399" y="-80" width="30" height="30" as="geometry" />
        </mxCell>
        <mxCell id="_FAD8S8fa4v7GIAxKk1I-44" value="Kasir" style="rounded=0;whiteSpace=wrap;html=1;" vertex="1" parent="1">
          <mxGeometry x="870" y="-142" width="100" height="50" as="geometry" />
        </mxCell>
        <mxCell id="_FAD8S8fa4v7GIAxKk1I-45" value="&lt;b&gt;&lt;u&gt;id_kasir&lt;/u&gt;&lt;/b&gt;" style="ellipse;whiteSpace=wrap;html=1;" vertex="1" parent="1">
          <mxGeometry x="757" y="-242" width="100" height="60" as="geometry" />
        </mxCell>
        <mxCell id="_FAD8S8fa4v7GIAxKk1I-46" value="nama_kasir" style="ellipse;whiteSpace=wrap;html=1;" vertex="1" parent="1">
          <mxGeometry x="869" y="-242" width="100" height="60" as="geometry" />
        </mxCell>
        <mxCell id="_FAD8S8fa4v7GIAxKk1I-48" value="" style="endArrow=none;html=1;rounded=0;entryX=0.5;entryY=1;entryDx=0;entryDy=0;exitX=0.5;exitY=0;exitDx=0;exitDy=0;" edge="1" parent="1" source="_FAD8S8fa4v7GIAxKk1I-44" target="_FAD8S8fa4v7GIAxKk1I-45">
          <mxGeometry width="50" height="50" relative="1" as="geometry">
            <mxPoint x="940" y="-50" as="sourcePoint" />
            <mxPoint x="990" y="-100" as="targetPoint" />
          </mxGeometry>
        </mxCell>
        <mxCell id="_FAD8S8fa4v7GIAxKk1I-49" value="" style="endArrow=none;html=1;rounded=0;entryX=0.5;entryY=1;entryDx=0;entryDy=0;exitX=0.5;exitY=0;exitDx=0;exitDy=0;" edge="1" parent="1" source="_FAD8S8fa4v7GIAxKk1I-44" target="_FAD8S8fa4v7GIAxKk1I-46">
          <mxGeometry width="50" height="50" relative="1" as="geometry">
            <mxPoint x="1080" y="-140" as="sourcePoint" />
            <mxPoint x="1019" y="-172" as="targetPoint" />
          </mxGeometry>
        </mxCell>
        <mxCell id="_FAD8S8fa4v7GIAxKk1I-50" value="melayani" style="rhombus;whiteSpace=wrap;html=1;" vertex="1" parent="1">
          <mxGeometry x="630" y="-157" width="119" height="80" as="geometry" />
        </mxCell>
        <mxCell id="_FAD8S8fa4v7GIAxKk1I-51" value="" style="endArrow=none;html=1;rounded=0;entryX=0;entryY=0.5;entryDx=0;entryDy=0;exitX=1;exitY=0.5;exitDx=0;exitDy=0;" edge="1" parent="1" source="_FAD8S8fa4v7GIAxKk1I-50" target="_FAD8S8fa4v7GIAxKk1I-44">
          <mxGeometry width="50" height="50" relative="1" as="geometry">
            <mxPoint x="820" y="-20" as="sourcePoint" />
            <mxPoint x="870" y="-70" as="targetPoint" />
          </mxGeometry>
        </mxCell>
        <mxCell id="_FAD8S8fa4v7GIAxKk1I-52" value="" style="endArrow=none;html=1;rounded=0;entryX=0;entryY=0.5;entryDx=0;entryDy=0;exitX=1;exitY=0.5;exitDx=0;exitDy=0;" edge="1" parent="1" target="_FAD8S8fa4v7GIAxKk1I-50">
          <mxGeometry width="50" height="50" relative="1" as="geometry">
            <mxPoint x="490" y="-117.62" as="sourcePoint" />
            <mxPoint x="681" y="-117.62" as="targetPoint" />
          </mxGeometry>
        </mxCell>
        <mxCell id="_FAD8S8fa4v7GIAxKk1I-53" value="1" style="text;html=1;align=center;verticalAlign=middle;resizable=0;points=[];autosize=1;strokeColor=none;fillColor=none;strokeWidth=0;fontSize=14;fontStyle=1" vertex="1" parent="1">
          <mxGeometry x="827" y="-157" width="30" height="30" as="geometry" />
        </mxCell>
        <mxCell id="_FAD8S8fa4v7GIAxKk1I-54" value="N" style="text;html=1;align=center;verticalAlign=middle;resizable=0;points=[];autosize=1;strokeColor=none;fillColor=none;strokeWidth=0;fontSize=14;fontStyle=1" vertex="1" parent="1">
          <mxGeometry x="500" y="-157" width="30" height="30" as="geometry" />
        </mxCell>
        <mxCell id="_FAD8S8fa4v7GIAxKk1I-55" value="Pegawai &lt;br&gt;Gudang" style="rounded=0;whiteSpace=wrap;html=1;" vertex="1" parent="1">
          <mxGeometry x="868.5" y="417.5" width="100" height="50" as="geometry" />
        </mxCell>
        <mxCell id="_FAD8S8fa4v7GIAxKk1I-56" value="&lt;b&gt;&lt;u&gt;id_pegawai&lt;/u&gt;&lt;/b&gt;" style="ellipse;whiteSpace=wrap;html=1;" vertex="1" parent="1">
          <mxGeometry x="760" y="500" width="100" height="60" as="geometry" />
        </mxCell>
        <mxCell id="_FAD8S8fa4v7GIAxKk1I-57" value="nama_pegawai" style="ellipse;whiteSpace=wrap;html=1;" vertex="1" parent="1">
          <mxGeometry x="868.5" y="500" width="100" height="60" as="geometry" />
        </mxCell>
        <mxCell id="_FAD8S8fa4v7GIAxKk1I-58" value="memesan" style="rhombus;whiteSpace=wrap;html=1;" vertex="1" parent="1">
          <mxGeometry x="859" y="260" width="119" height="80" as="geometry" />
        </mxCell>
        <mxCell id="_FAD8S8fa4v7GIAxKk1I-61" value="" style="endArrow=none;html=1;rounded=0;entryX=0.5;entryY=1;entryDx=0;entryDy=0;exitX=0.5;exitY=0;exitDx=0;exitDy=0;" edge="1" parent="1" source="_FAD8S8fa4v7GIAxKk1I-56" target="_FAD8S8fa4v7GIAxKk1I-55">
          <mxGeometry width="50" height="50" relative="1" as="geometry">
            <mxPoint x="929" y="557.5" as="sourcePoint" />
            <mxPoint x="979" y="507.5" as="targetPoint" />
          </mxGeometry>
        </mxCell>
        <mxCell id="_FAD8S8fa4v7GIAxKk1I-62" value="" style="endArrow=none;html=1;rounded=0;entryX=0.5;entryY=1;entryDx=0;entryDy=0;exitX=0.5;exitY=0;exitDx=0;exitDy=0;" edge="1" parent="1" source="_FAD8S8fa4v7GIAxKk1I-57" target="_FAD8S8fa4v7GIAxKk1I-55">
          <mxGeometry width="50" height="50" relative="1" as="geometry">
            <mxPoint x="879" y="557.5" as="sourcePoint" />
            <mxPoint x="939" y="517.5" as="targetPoint" />
          </mxGeometry>
        </mxCell>
        <mxCell id="_FAD8S8fa4v7GIAxKk1I-65" value="" style="endArrow=none;html=1;rounded=0;entryX=0.5;entryY=1;entryDx=0;entryDy=0;exitX=0.5;exitY=0;exitDx=0;exitDy=0;" edge="1" parent="1" source="_FAD8S8fa4v7GIAxKk1I-55" target="_FAD8S8fa4v7GIAxKk1I-58">
          <mxGeometry width="50" height="50" relative="1" as="geometry">
            <mxPoint x="899" y="347.5" as="sourcePoint" />
            <mxPoint x="949" y="297.5" as="targetPoint" />
          </mxGeometry>
        </mxCell>
        <mxCell id="_FAD8S8fa4v7GIAxKk1I-66" value="" style="endArrow=none;html=1;rounded=0;entryX=0.5;entryY=1;entryDx=0;entryDy=0;exitX=0.5;exitY=0;exitDx=0;exitDy=0;" edge="1" parent="1" source="_FAD8S8fa4v7GIAxKk1I-58" target="_FAD8S8fa4v7GIAxKk1I-16">
          <mxGeometry width="50" height="50" relative="1" as="geometry">
            <mxPoint x="927" y="257.5" as="sourcePoint" />
            <mxPoint x="926.75" y="177.5" as="targetPoint" />
          </mxGeometry>
        </mxCell>
        <mxCell id="_FAD8S8fa4v7GIAxKk1I-67" value="N" style="text;html=1;align=center;verticalAlign=middle;resizable=0;points=[];autosize=1;strokeColor=none;fillColor=none;strokeWidth=0;fontSize=14;fontStyle=1" vertex="1" parent="1">
          <mxGeometry x="930" y="183" width="30" height="30" as="geometry" />
        </mxCell>
        <mxCell id="_FAD8S8fa4v7GIAxKk1I-68" value="1" style="text;html=1;align=center;verticalAlign=middle;resizable=0;points=[];autosize=1;strokeColor=none;fillColor=none;strokeWidth=0;fontSize=14;fontStyle=1" vertex="1" parent="1">
          <mxGeometry x="930" y="382.5" width="30" height="30" as="geometry" />
        </mxCell>
        <mxCell id="_FAD8S8fa4v7GIAxKk1I-69" value="" style="endArrow=none;html=1;rounded=0;exitX=1;exitY=1;exitDx=0;exitDy=0;entryX=0;entryY=0.5;entryDx=0;entryDy=0;" edge="1" parent="1" source="_FAD8S8fa4v7GIAxKk1I-3" target="_FAD8S8fa4v7GIAxKk1I-2">
          <mxGeometry width="50" height="50" relative="1" as="geometry">
            <mxPoint x="570" y="30" as="sourcePoint" />
            <mxPoint x="620" y="-20" as="targetPoint" />
          </mxGeometry>
        </mxCell>
        <mxCell id="_FAD8S8fa4v7GIAxKk1I-70" value="" style="endArrow=none;html=1;rounded=0;exitX=1;exitY=0.5;exitDx=0;exitDy=0;entryX=0;entryY=0.5;entryDx=0;entryDy=0;" edge="1" parent="1" source="_FAD8S8fa4v7GIAxKk1I-5" target="_FAD8S8fa4v7GIAxKk1I-2">
          <mxGeometry width="50" height="50" relative="1" as="geometry">
            <mxPoint x="570" y="30" as="sourcePoint" />
            <mxPoint x="620" y="-20" as="targetPoint" />
          </mxGeometry>
        </mxCell>
        <mxCell id="_FAD8S8fa4v7GIAxKk1I-71" value="" style="endArrow=none;html=1;rounded=0;exitX=1;exitY=0.5;exitDx=0;exitDy=0;entryX=0;entryY=0.5;entryDx=0;entryDy=0;" edge="1" parent="1" source="_FAD8S8fa4v7GIAxKk1I-7" target="_FAD8S8fa4v7GIAxKk1I-2">
          <mxGeometry width="50" height="50" relative="1" as="geometry">
            <mxPoint x="310" y="100" as="sourcePoint" />
            <mxPoint x="400" y="163" as="targetPoint" />
          </mxGeometry>
        </mxCell>
        <mxCell id="_FAD8S8fa4v7GIAxKk1I-72" value="" style="endArrow=none;html=1;rounded=0;exitX=1;exitY=0.5;exitDx=0;exitDy=0;entryX=0;entryY=0.5;entryDx=0;entryDy=0;" edge="1" parent="1" source="_FAD8S8fa4v7GIAxKk1I-12" target="_FAD8S8fa4v7GIAxKk1I-2">
          <mxGeometry width="50" height="50" relative="1" as="geometry">
            <mxPoint x="310" y="100" as="sourcePoint" />
            <mxPoint x="400" y="163" as="targetPoint" />
          </mxGeometry>
        </mxCell>
        <mxCell id="_FAD8S8fa4v7GIAxKk1I-73" value="" style="endArrow=none;html=1;rounded=0;exitX=1;exitY=0;exitDx=0;exitDy=0;entryX=0;entryY=0.5;entryDx=0;entryDy=0;" edge="1" parent="1" source="_FAD8S8fa4v7GIAxKk1I-13" target="_FAD8S8fa4v7GIAxKk1I-2">
          <mxGeometry width="50" height="50" relative="1" as="geometry">
            <mxPoint x="310" y="230" as="sourcePoint" />
            <mxPoint x="400" y="163" as="targetPoint" />
          </mxGeometry>
        </mxCell>
        <mxCell id="_FAD8S8fa4v7GIAxKk1I-74" value="" style="endArrow=none;html=1;rounded=0;exitX=0;exitY=0.5;exitDx=0;exitDy=0;entryX=1;entryY=0.5;entryDx=0;entryDy=0;endFill=0;" edge="1" parent="1" source="_FAD8S8fa4v7GIAxKk1I-16">
          <mxGeometry width="50" height="50" relative="1" as="geometry">
            <mxPoint x="889" y="152.5" as="sourcePoint" />
            <mxPoint x="749" y="152.5" as="targetPoint" />
          </mxGeometry>
        </mxCell>
        <mxCell id="_FAD8S8fa4v7GIAxKk1I-75" value="Manager" style="rounded=0;whiteSpace=wrap;html=1;" vertex="1" parent="1">
          <mxGeometry x="390" y="417.5" width="100" height="50" as="geometry" />
        </mxCell>
        <mxCell id="_FAD8S8fa4v7GIAxKk1I-76" value="mengawasi" style="rhombus;whiteSpace=wrap;html=1;" vertex="1" parent="1">
          <mxGeometry x="381" y="260" width="119" height="80" as="geometry" />
        </mxCell>
        <mxCell id="_FAD8S8fa4v7GIAxKk1I-78" value="&lt;b&gt;&lt;u&gt;id_manager&lt;/u&gt;&lt;/b&gt;" style="ellipse;whiteSpace=wrap;html=1;" vertex="1" parent="1">
          <mxGeometry x="281" y="500" width="100" height="60" as="geometry" />
        </mxCell>
        <mxCell id="_FAD8S8fa4v7GIAxKk1I-79" value="nama_manager" style="ellipse;whiteSpace=wrap;html=1;" vertex="1" parent="1">
          <mxGeometry x="389.5" y="500" width="100" height="60" as="geometry" />
        </mxCell>
        <mxCell id="_FAD8S8fa4v7GIAxKk1I-80" value="" style="endArrow=none;html=1;rounded=0;entryX=0.5;entryY=1;entryDx=0;entryDy=0;" edge="1" parent="1" source="_FAD8S8fa4v7GIAxKk1I-76" target="_FAD8S8fa4v7GIAxKk1I-2">
          <mxGeometry width="50" height="50" relative="1" as="geometry">
            <mxPoint x="240" y="280" as="sourcePoint" />
            <mxPoint x="290" y="230" as="targetPoint" />
          </mxGeometry>
        </mxCell>
        <mxCell id="_FAD8S8fa4v7GIAxKk1I-81" value="" style="endArrow=none;html=1;rounded=0;entryX=0.5;entryY=1;entryDx=0;entryDy=0;" edge="1" parent="1" target="_FAD8S8fa4v7GIAxKk1I-76">
          <mxGeometry width="50" height="50" relative="1" as="geometry">
            <mxPoint x="439.47" y="417.5" as="sourcePoint" />
            <mxPoint x="440" y="360" as="targetPoint" />
          </mxGeometry>
        </mxCell>
        <mxCell id="_FAD8S8fa4v7GIAxKk1I-82" value="" style="endArrow=none;html=1;rounded=0;entryX=0.5;entryY=1;entryDx=0;entryDy=0;exitX=0.5;exitY=0;exitDx=0;exitDy=0;" edge="1" parent="1" source="_FAD8S8fa4v7GIAxKk1I-78" target="_FAD8S8fa4v7GIAxKk1I-75">
          <mxGeometry width="50" height="50" relative="1" as="geometry">
            <mxPoint x="270" y="400" as="sourcePoint" />
            <mxPoint x="320" y="350" as="targetPoint" />
          </mxGeometry>
        </mxCell>
        <mxCell id="_FAD8S8fa4v7GIAxKk1I-83" value="" style="endArrow=none;html=1;rounded=0;entryX=0.5;entryY=1;entryDx=0;entryDy=0;exitX=0.5;exitY=0;exitDx=0;exitDy=0;" edge="1" parent="1" source="_FAD8S8fa4v7GIAxKk1I-79" target="_FAD8S8fa4v7GIAxKk1I-75">
          <mxGeometry width="50" height="50" relative="1" as="geometry">
            <mxPoint x="381" y="510" as="sourcePoint" />
            <mxPoint x="450" y="478" as="targetPoint" />
          </mxGeometry>
        </mxCell>
        <mxCell id="_FAD8S8fa4v7GIAxKk1I-84" value="access_role" style="ellipse;whiteSpace=wrap;html=1;" vertex="1" parent="1">
          <mxGeometry x="978" y="-242" width="100" height="60" as="geometry" />
        </mxCell>
        <mxCell id="_FAD8S8fa4v7GIAxKk1I-85" value="" style="endArrow=none;html=1;rounded=0;entryX=0.5;entryY=1;entryDx=0;entryDy=0;exitX=0.5;exitY=0;exitDx=0;exitDy=0;" edge="1" parent="1" source="_FAD8S8fa4v7GIAxKk1I-44" target="_FAD8S8fa4v7GIAxKk1I-84">
          <mxGeometry width="50" height="50" relative="1" as="geometry">
            <mxPoint x="930" y="-132" as="sourcePoint" />
            <mxPoint x="929" y="-172" as="targetPoint" />
          </mxGeometry>
        </mxCell>
        <mxCell id="_FAD8S8fa4v7GIAxKk1I-86" value="access_role" style="ellipse;whiteSpace=wrap;html=1;" vertex="1" parent="1">
          <mxGeometry x="978" y="500" width="100" height="60" as="geometry" />
        </mxCell>
        <mxCell id="_FAD8S8fa4v7GIAxKk1I-87" value="" style="endArrow=none;html=1;rounded=0;entryX=0.5;entryY=1;entryDx=0;entryDy=0;exitX=0.5;exitY=0;exitDx=0;exitDy=0;" edge="1" parent="1" source="_FAD8S8fa4v7GIAxKk1I-86" target="_FAD8S8fa4v7GIAxKk1I-55">
          <mxGeometry width="50" height="50" relative="1" as="geometry">
            <mxPoint x="929" y="510" as="sourcePoint" />
            <mxPoint x="929" y="478" as="targetPoint" />
          </mxGeometry>
        </mxCell>
        <mxCell id="_FAD8S8fa4v7GIAxKk1I-88" value="access_role" style="ellipse;whiteSpace=wrap;html=1;" vertex="1" parent="1">
          <mxGeometry x="500" y="500" width="100" height="60" as="geometry" />
        </mxCell>
        <mxCell id="_FAD8S8fa4v7GIAxKk1I-89" value="" style="endArrow=none;html=1;rounded=0;entryX=0.5;entryY=1;entryDx=0;entryDy=0;exitX=0.551;exitY=0.025;exitDx=0;exitDy=0;exitPerimeter=0;" edge="1" parent="1" source="_FAD8S8fa4v7GIAxKk1I-88" target="_FAD8S8fa4v7GIAxKk1I-75">
          <mxGeometry width="50" height="50" relative="1" as="geometry">
            <mxPoint x="450" y="510" as="sourcePoint" />
            <mxPoint x="450" y="478" as="targetPoint" />
          </mxGeometry>
        </mxCell>
        <mxCell id="_FAD8S8fa4v7GIAxKk1I-90" value="N" style="text;html=1;align=center;verticalAlign=middle;resizable=0;points=[];autosize=1;strokeColor=none;fillColor=none;strokeWidth=0;fontSize=14;fontStyle=1" vertex="1" parent="1">
          <mxGeometry x="448" y="183" width="30" height="30" as="geometry" />
        </mxCell>
        <mxCell id="_FAD8S8fa4v7GIAxKk1I-91" value="1" style="text;html=1;align=center;verticalAlign=middle;resizable=0;points=[];autosize=1;strokeColor=none;fillColor=none;strokeWidth=0;fontSize=14;fontStyle=1" vertex="1" parent="1">
          <mxGeometry x="448" y="382.5" width="30" height="30" as="geometry" />
        </mxCell>
      </root>
    </mxGraphModel>
  </diagram>
</mxfile>
